<svg id="visual" viewBox="0 0 900 300" width="900" height="300" xmlns="http://www.w3.org/2000/svg" xmlns:xlink="http://www.w3.org/1999/xlink" version="1.1"><rect x="0" y="0" width="900" height="300" fill="transparent"></rect><path d="M0 235L30 239C60 243 120 251 180 247.2C240 243.3 300 227.7 360 219.8C420 212 480 212 540 220C600 228 660 244 720 252C780 260 840 260 870 260L900 260L900 301L870 301C840 301 780 301 720 301C660 301 600 301 540 301C480 301 420 301 360 301C300 301 240 301 180 301C120 301 60 301 30 301L0 301Z" fill="#342a21" stroke-linecap="round" stroke-linejoin="miter"></path></svg>