<svg id="visual" viewBox="0 100 900 300" width="900" height="300" xmlns="http://www.w3.org/2000/svg" xmlns:xlink="http://www.w3.org/1999/xlink" version="1.1"><rect x="0" y="0" width="900" height="300" fill="#3b2612"></rect><path d="M0 201L30 209.8C60 218.7 120 236.3 180 243.8C240 251.3 300 248.7 360 238.5C420 228.3 480 210.7 540 207.8C600 205 660 217 720 216.2C780 215.3 840 201.7 870 194.8L900 188L900 301L870 301C840 301 780 301 720 301C660 301 600 301 540 301C480 301 420 301 360 301C300 301 240 301 180 301C120 301 60 301 30 301L0 301Z" fill="#ffa836" stroke-linecap="round" stroke-linejoin="miter"></path></svg>