<svg id="visual" viewBox="0 0 900 300" width="900" height="300" xmlns="http://www.w3.org/2000/svg" xmlns:xlink="http://www.w3.org/1999/xlink" version="1.1"><rect x="0" y="0" width="900" height="300" fill="#ffdfb5"></rect><path d="M0 197L30 201.2C60 205.3 120 213.7 180 220.2C240 226.7 300 231.3 360 229.7C420 228 480 220 540 213.3C600 206.7 660 201.3 720 203.5C780 205.7 840 215.3 870 220.2L900 225L900 301L870 301C840 301 780 301 720 301C660 301 600 301 540 301C480 301 420 301 360 301C300 301 240 301 180 301C120 301 60 301 30 301L0 301Z" fill="#342a21" stroke-linecap="round" stroke-linejoin="miter"></path></svg>